<!-- Generator: Adobe Illustrator 19.1.0, SVG Export Plug-In  -->
<svg version="1.1"
	xmlns="http://www.w3.org/2000/svg" xmlns:xlink="http://www.w3.org/1999/xlink" xmlns:a="http://ns.adobe.com/AdobeSVGViewerExtensions/3.0/"
	x="0px" y="0px" width="277.4px" height="110.3px" viewBox="0 0 277.4 110.3" style="enable-background:new 0 0 277.4 110.3;"
	xml:space="preserve">
<defs>
</defs>
<g>
	<path d="M12.1,10c0,0-2.5,4.4,1.9,5.6c5.6,1.4,11.6,2.3,17.2,4.5c1.6,0.6-0.1,2.1-1.2,2c-9.7-2.7-18.9-6-30-5.5
		c2.5,3,6.2,7.1,7,11.2c3.9-3.1,9.9-4.8,14.6-2.3L16,27.5C7.2,30.8,1.2,40.1,0.3,49.1c-0.8,10,4.5,18.7,13.3,23.2
		c10.5,5.6,27.4,3.2,32.2,14.4c1.1,2.7,1.1,8-1.2,11.2c-4,5.1-9.7,6.6-16.4,5.8c0,0-7.9-1.1-12.5-4.6C8.9,94,7,87.2,6.1,79.6l-4,0
		c1,9.6,0,19.3-1.3,28.4l3.4,0.4c0,0,0.9-2.4,1.9-3.8c0.8-0.8,2.1-1,3.1-0.3c11.8,8.1,31,8.1,42.1,0.6c7.6-5.6,10.4-14.1,8.1-23
		C54.3,64,33.9,66,20.6,59.8c-4.4-1.7-8.9-6-8.9-11.2c-0.1-5.4,2.1-9.7,6.5-12.8c1.8-1.1,3.7-1.3,3.7-1.3c-3.6,3.7-5.8,8-5.2,13.4
		c0.5,4.4,4.3,8.6,8.5,9.9c4.1,1.1,7.8-0.5,10.9-2.9l-0.4-1.9c-1.8,0.5-4.1,0.5-5.9,0c-3.7-1.3-5.1-5-4.7-8.7
		c0.3-1.6,1.6-2.7,3.4-2.2c9.1,3.8,7.4,15.9,16,20.1c2.9,1,5.5,0.1,7.3-1.2c4.5-3.2,6.1-7.3,7.3-12.4c-2.4,2.7-4.6,5.7-8.2,6.3
		c-1.8,0.4-2.7,0-3.7-1.5c-3.5-5.6-4.6-14.9-12.9-15.8c-1.6,0-2-0.1-5,0.3c2.1-1.7,4.6-3.4,7.4-3.5c4.1-0.1,8.4,2.7,10,5.5
		c0.8,1.6,0.6,4.1-0.6,5.6l1.9,1.4c3.1-4,9.8-9.1,9.7-12.5c-0.5-6.6-10.5-10.6-16.4-12.9c0,0,1-2.6,0.5-4.5c-1.1-2.6-3.6-3-5.9-3.7
		c-4.3-1.2-11.2-1.8-14.4-4.6c-3.2-2.8-1.7-5.8-0.9-9C12.5,8.9,12.1,10,12.1,10z M38,23.9c1,0.5,2,1.5,2.5,2.5l-9-1.5
		C33.3,23.6,35.9,22.6,38,23.9z"/>
	<g>
		<g>
			<path d="M89.2,42.9c-0.1-0.1-0.4-0.3-0.9-0.6c-0.5-0.3-1.1-0.6-1.8-0.9c-0.7-0.3-1.5-0.6-2.3-0.8c-0.8-0.2-1.7-0.4-2.5-0.4
				c-1.1,0-2,0.2-2.6,0.6c-0.6,0.4-0.9,1-0.9,1.7c0,0.5,0.1,0.9,0.4,1.2c0.3,0.3,0.6,0.6,1.1,0.9c0.5,0.2,1.1,0.5,1.8,0.7
				c0.7,0.2,1.6,0.5,2.5,0.7c1.4,0.4,2.6,0.8,3.7,1.2c1.1,0.4,2,1,2.8,1.6c0.8,0.6,1.4,1.4,1.8,2.4c0.4,0.9,0.6,2,0.6,3.3
				c0,1.6-0.3,2.9-0.9,4c-0.6,1.1-1.4,2-2.4,2.7c-1,0.7-2.1,1.2-3.4,1.5c-1.3,0.3-2.6,0.5-3.9,0.5c-1,0-2.1-0.1-3.2-0.2
				c-1.1-0.2-2.1-0.4-3.2-0.7c-1-0.3-2-0.7-3-1.1c-1-0.4-1.9-0.9-2.7-1.5l2.9-5.7c0.1,0.1,0.5,0.4,1.1,0.8c0.6,0.4,1.3,0.7,2.1,1.1
				c0.9,0.4,1.8,0.7,2.9,1c1.1,0.3,2.1,0.4,3.2,0.4c2.3,0,3.5-0.7,3.5-2.1c0-0.5-0.2-1-0.5-1.3c-0.3-0.3-0.8-0.7-1.4-0.9
				c-0.6-0.3-1.3-0.5-2.1-0.8c-0.8-0.2-1.7-0.5-2.7-0.8c-1.3-0.4-2.4-0.8-3.4-1.3c-1-0.5-1.7-1-2.4-1.6c-0.6-0.6-1.1-1.3-1.4-2.1
				c-0.3-0.8-0.5-1.7-0.5-2.8c0-1.5,0.3-2.8,0.8-3.9c0.6-1.1,1.3-2.1,2.3-2.9c1-0.8,2.1-1.4,3.3-1.8c1.3-0.4,2.6-0.6,4-0.6
				c1,0,2,0.1,2.9,0.3c1,0.2,1.9,0.4,2.7,0.7c0.9,0.3,1.7,0.6,2.4,1c0.8,0.4,1.5,0.7,2.1,1.1L89.2,42.9z"/>
			<path d="M101.9,63.2c-2.1,0-3.7-0.7-4.8-2c-1.1-1.3-1.7-3.3-1.7-5.9V42h6.4v12c0,1.3,0.2,2.2,0.8,2.9c0.5,0.7,1.2,1,2.1,1
				c0.8,0,1.7-0.2,2.5-0.7c0.8-0.4,1.5-1.2,2.1-2.3V42h6.3v13.7c0,0.6,0.1,1.1,0.4,1.3c0.2,0.2,0.7,0.4,1.3,0.5v5.4
				c-0.7,0.1-1.2,0.2-1.7,0.3c-0.5,0-0.9,0.1-1.3,0.1c-2.2,0-3.5-0.9-3.8-2.7l-0.1-1.3c-1,1.4-2.1,2.4-3.6,3
				C105.2,62.9,103.7,63.2,101.9,63.2z"/>
			<path d="M140.4,62.8h-6.4V51.1c0-1.4-0.3-2.4-0.8-3c-0.5-0.6-1.2-0.9-2-0.9c-0.5,0-0.9,0.1-1.4,0.3c-0.5,0.2-0.9,0.4-1.3,0.8
				c-0.4,0.3-0.8,0.7-1.1,1.2c-0.3,0.5-0.6,0.9-0.8,1.5v12h-6.4V42h5.7v3.5c0.8-1.2,1.9-2.2,3.3-2.9c1.4-0.7,3-1,4.8-1
				c1.4,0,2.4,0.2,3.3,0.7c0.8,0.5,1.5,1.1,1.9,1.9c0.5,0.8,0.8,1.6,0.9,2.6c0.1,0.9,0.2,1.8,0.2,2.7V62.8z"/>
			<path d="M152.8,63.2c-1.4,0-2.7-0.3-4-0.8c-1.2-0.5-2.2-1.3-3.1-2.3c-0.9-1-1.6-2.1-2-3.4c-0.5-1.3-0.7-2.7-0.7-4.3
				c0-1.5,0.2-2.9,0.7-4.3c0.5-1.3,1.1-2.5,1.9-3.4c0.8-1,1.8-1.7,2.9-2.3c1.1-0.6,2.4-0.8,3.7-0.8c1.4,0,2.7,0.3,3.9,1
				c1.2,0.7,2.1,1.6,2.7,2.8V33.8h6.4v21.8c0,0.6,0.1,1.1,0.4,1.3c0.2,0.2,0.7,0.4,1.3,0.5v5.4c-0.7,0.1-1.2,0.2-1.7,0.3
				c-0.5,0-0.9,0.1-1.3,0.1c-2.2-0.1-3.5-0.9-3.8-2.7l-0.1-1.1c-0.8,1.3-1.8,2.3-3,2.9C155.6,62.9,154.3,63.2,152.8,63.2z
				M154.6,57.8c0.9,0,1.7-0.3,2.5-0.8c0.8-0.5,1.4-1.2,1.9-2.1v-4.4c-0.4-1.1-1-1.9-1.9-2.6c-0.9-0.7-1.8-1-2.8-1
				c-0.7,0-1.3,0.1-1.9,0.5c-0.6,0.3-1.1,0.7-1.5,1.2c-0.4,0.5-0.7,1.1-1,1.7c-0.2,0.7-0.3,1.4-0.3,2.1c0,1.6,0.5,2.8,1.4,3.9
				C151.9,57.3,153.1,57.8,154.6,57.8z"/>
			<path d="M178.7,63.2c-0.9,0-1.8-0.1-2.7-0.2c-0.9-0.1-1.9-0.3-2.8-0.5c-0.9-0.2-1.8-0.5-2.7-0.8c-0.9-0.3-1.6-0.7-2.2-1.1
				l2.5-4.3c1.4,0.8,2.7,1.4,4,1.8c1.3,0.4,2.5,0.6,3.7,0.6c0.9,0,1.6-0.1,2.1-0.4c0.5-0.3,0.7-0.7,0.7-1.3c0-0.6-0.3-1-1-1.3
				c-0.7-0.3-1.8-0.7-3.4-1.1c-1.4-0.4-2.6-0.7-3.6-1.1c-1-0.4-1.8-0.8-2.4-1.2c-0.6-0.5-1-1-1.3-1.6c-0.3-0.6-0.4-1.3-0.4-2.1
				c0-1.1,0.2-2,0.7-2.9c0.4-0.9,1-1.6,1.8-2.2c0.8-0.6,1.7-1.1,2.7-1.4c1.1-0.3,2.2-0.5,3.4-0.5c1.5,0,2.9,0.2,4.5,0.7
				c1.5,0.4,3,1,4.5,1.8l-2.5,4c-1.3-0.7-2.5-1.2-3.5-1.6c-1-0.3-2-0.5-3-0.5c-0.8,0-1.4,0.1-2,0.4c-0.5,0.3-0.8,0.7-0.8,1.3
				c0,0.3,0.1,0.5,0.2,0.7c0.1,0.2,0.4,0.4,0.7,0.6c0.3,0.2,0.7,0.3,1.2,0.5c0.5,0.1,1.1,0.3,1.9,0.5c1.5,0.4,2.8,0.8,3.9,1.2
				c1.1,0.4,1.9,0.8,2.6,1.3c0.7,0.5,1.1,1,1.4,1.7c0.3,0.6,0.4,1.4,0.4,2.3c0,1-0.2,2-0.6,2.8c-0.4,0.8-1,1.5-1.8,2.1
				c-0.8,0.6-1.7,1-2.8,1.3C181.3,63,180,63.2,178.7,63.2z"/>
			<path d="M195.1,62.8L187.7,42h6.5l4.6,15.8l4.6-15.8h5.9L202,62.8H195.1z"/>
			<path d="M216.6,63.2c-1,0-2-0.2-2.9-0.5c-0.9-0.3-1.7-0.8-2.3-1.4c-0.6-0.6-1.1-1.3-1.5-2.1c-0.4-0.8-0.6-1.7-0.6-2.6
				c0-1,0.2-2,0.7-2.8c0.4-0.8,1.1-1.6,1.8-2.2c0.8-0.6,1.7-1.1,2.8-1.4c1.1-0.3,2.3-0.5,3.6-0.5c0.9,0,1.7,0.1,2.5,0.2
				c0.8,0.1,1.5,0.4,2.1,0.7v-1c0-2.4-1.4-3.6-4.2-3.6c-1.1,0-2.2,0.2-3.3,0.6c-1,0.4-2.1,1-3.3,1.7l-1.9-4c1.4-0.9,2.8-1.6,4.3-2
				c1.5-0.5,3.1-0.7,4.7-0.7c3.2,0,5.6,0.7,7.3,2.2c1.7,1.5,2.6,3.7,2.6,6.5v5.4c0,0.6,0.1,1.1,0.4,1.3c0.2,0.2,0.7,0.4,1.3,0.5v5.4
				c-0.6,0.1-1.2,0.2-1.7,0.3c-0.5,0-1,0.1-1.4,0.1c-1.2,0-2-0.3-2.7-0.7c-0.6-0.4-1-1.1-1.2-1.9l-0.1-1c-0.9,1.2-2,2.1-3.3,2.7
				C219.4,62.9,218.1,63.2,216.6,63.2z M218.5,58.6c0.7,0,1.4-0.1,2-0.4c0.6-0.2,1.2-0.6,1.6-1c0.6-0.5,0.9-1,0.9-1.5v-2
				c-0.5-0.2-1.2-0.4-1.8-0.5c-0.6-0.1-1.3-0.2-1.8-0.2c-1.2,0-2.1,0.3-2.9,0.8c-0.8,0.5-1.1,1.2-1.1,2.1c0,0.8,0.3,1.4,0.9,1.9
				C216.9,58.4,217.6,58.6,218.5,58.6z"/>
			<path d="M233.7,33.8h6.4V55c0,1.6,0.7,2.4,2.1,2.4c0.3,0,0.6-0.1,1-0.2c0.4-0.1,0.7-0.2,1-0.4L245,62c-0.8,0.4-1.7,0.7-2.7,0.9
				c-1,0.2-2,0.3-2.9,0.3c-1.8,0-3.2-0.5-4.2-1.4c-1-1-1.5-2.3-1.5-4.1V33.8z"/>
			<path d="M246.7,33.8h6.4V55c0,1.6,0.7,2.4,2.1,2.4c0.3,0,0.6-0.1,1-0.2c0.4-0.1,0.7-0.2,1.1-0.4l0.8,5.1
				c-0.8,0.4-1.7,0.7-2.7,0.9c-1,0.2-2,0.3-2.9,0.3c-1.8,0-3.2-0.5-4.2-1.4c-1-1-1.5-2.3-1.5-4.1V33.8z"/>
			<path d="M268.6,63.2c-0.9,0-1.8-0.1-2.7-0.2c-0.9-0.1-1.9-0.3-2.8-0.5c-0.9-0.2-1.8-0.5-2.7-0.8c-0.8-0.3-1.6-0.7-2.2-1.1
				l2.5-4.3c1.4,0.8,2.7,1.4,4,1.8c1.3,0.4,2.5,0.6,3.7,0.6c0.9,0,1.6-0.1,2.1-0.4c0.5-0.3,0.7-0.7,0.7-1.3c0-0.6-0.3-1-1-1.3
				c-0.7-0.3-1.8-0.7-3.4-1.1c-1.4-0.4-2.6-0.7-3.6-1.1c-1-0.4-1.8-0.8-2.4-1.2c-0.6-0.5-1-1-1.3-1.6c-0.3-0.6-0.4-1.3-0.4-2.1
				c0-1.1,0.2-2,0.7-2.9c0.4-0.9,1-1.6,1.8-2.2c0.8-0.6,1.7-1.1,2.7-1.4c1-0.3,2.2-0.5,3.4-0.5c1.5,0,2.9,0.2,4.5,0.7
				c1.5,0.4,3,1,4.5,1.8l-2.5,4c-1.3-0.7-2.5-1.2-3.5-1.6c-1-0.3-2-0.5-3-0.5c-0.8,0-1.4,0.1-2,0.4c-0.5,0.3-0.8,0.7-0.8,1.3
				c0,0.3,0.1,0.5,0.2,0.7c0.1,0.2,0.3,0.4,0.7,0.6c0.3,0.2,0.7,0.3,1.2,0.5c0.5,0.1,1.1,0.3,1.9,0.5c1.5,0.4,2.8,0.8,3.9,1.2
				c1.1,0.4,1.9,0.8,2.6,1.3c0.7,0.5,1.1,1,1.4,1.7c0.3,0.6,0.4,1.4,0.4,2.3c0,1-0.2,2-0.6,2.8c-0.4,0.8-1,1.5-1.8,2.1
				c-0.8,0.6-1.7,1-2.8,1.3C271.1,63,269.9,63.2,268.6,63.2z"/>
			<path d="M85.8,98.5l-5.4-8.4l-2.2,2.3v6.1h-6.3v-29h6.3v16.8l7.1-8.7h6.8l-7.5,9l8.1,11.9H85.8z"/>
			<path d="M102.8,98.9c-1.8,0-3.4-0.3-4.8-0.9c-1.4-0.6-2.6-1.4-3.5-2.4c-1-1-1.7-2.1-2.2-3.5c-0.5-1.3-0.7-2.7-0.7-4.1
				c0-1.4,0.2-2.8,0.7-4.1c0.5-1.3,1.2-2.5,2.2-3.5c1-1,2.1-1.8,3.5-2.4c1.4-0.6,3-0.9,4.8-0.9c1.8,0,3.3,0.3,4.7,0.9
				c1.4,0.6,2.5,1.4,3.5,2.4c1,1,1.7,2.1,2.2,3.5c0.5,1.3,0.8,2.7,0.8,4.1c0,1.4-0.2,2.8-0.7,4.1c-0.5,1.3-1.2,2.5-2.2,3.5
				c-1,1-2.1,1.8-3.5,2.4C106.2,98.6,104.6,98.9,102.8,98.9z M98.2,88.1c0,1.6,0.4,3,1.3,3.9c0.9,1,2,1.5,3.3,1.5
				c0.7,0,1.3-0.1,1.8-0.4c0.6-0.3,1-0.6,1.5-1.1c0.4-0.5,0.7-1.1,1-1.7c0.2-0.7,0.4-1.4,0.4-2.2c0-1.6-0.4-3-1.3-4
				c-0.9-1-2-1.5-3.3-1.5c-0.7,0-1.3,0.1-1.9,0.4c-0.6,0.3-1.1,0.6-1.5,1.1c-0.4,0.5-0.7,1-1,1.7C98.3,86.6,98.2,87.3,98.2,88.1z"/>
			<path d="M149.6,98.5h-6.4V86.8c0-1.4-0.2-2.4-0.7-3c-0.5-0.6-1.1-0.9-2-0.9c-0.8,0-1.7,0.3-2.5,1c-0.8,0.7-1.4,1.6-1.8,2.7v11.9
				h-6.4V86.8c0-1.4-0.2-2.4-0.7-3c-0.5-0.6-1.1-0.9-2-0.9c-0.9,0-1.7,0.3-2.5,1c-0.8,0.7-1.4,1.6-1.8,2.7v11.9h-6.4V77.7h5.7v3.5
				c0.8-1.3,1.8-2.2,3.1-2.9c1.3-0.7,2.9-1,4.6-1c0.8,0,1.6,0.1,2.3,0.3c0.7,0.2,1.2,0.5,1.7,0.9c0.5,0.4,0.9,0.8,1.2,1.3
				c0.3,0.5,0.5,1,0.7,1.6c0.8-1.3,1.8-2.3,3.1-3c1.3-0.7,2.8-1.1,4.4-1.1c1.3,0,2.4,0.2,3.2,0.7c0.8,0.5,1.4,1.1,1.9,1.9
				c0.5,0.8,0.8,1.6,0.9,2.6c0.1,0.9,0.2,1.8,0.2,2.7V98.5z"/>
			<path d="M186.3,98.5h-6.4V86.8c0-1.4-0.2-2.4-0.7-3c-0.5-0.6-1.1-0.9-2-0.9c-0.9,0-1.7,0.3-2.5,1c-0.8,0.7-1.4,1.6-1.8,2.7v11.9
				h-6.4V86.8c0-1.4-0.2-2.4-0.7-3c-0.5-0.6-1.1-0.9-2-0.9c-0.8,0-1.7,0.3-2.5,1c-0.8,0.7-1.4,1.6-1.8,2.7v11.9h-6.3V77.7h5.7v3.5
				c0.8-1.3,1.8-2.2,3.1-2.9c1.3-0.7,2.9-1,4.6-1c0.8,0,1.6,0.1,2.3,0.3c0.7,0.2,1.2,0.5,1.7,0.9c0.5,0.4,0.8,0.8,1.2,1.3
				c0.3,0.5,0.5,1,0.7,1.6c0.8-1.3,1.8-2.3,3.1-3c1.3-0.7,2.8-1.1,4.4-1.1c1.3,0,2.4,0.2,3.2,0.7c0.8,0.5,1.4,1.1,1.9,1.9
				c0.5,0.8,0.8,1.6,0.9,2.6c0.1,0.9,0.2,1.8,0.2,2.7V98.5z"/>
			<path d="M196.4,98.9c-2.1,0-3.7-0.7-4.8-2c-1.1-1.3-1.7-3.3-1.7-5.9V77.7h6.3v11.9c0,1.3,0.3,2.2,0.8,2.9c0.5,0.7,1.2,1,2.1,1
				c0.8,0,1.7-0.2,2.5-0.7c0.8-0.4,1.5-1.2,2.1-2.3V77.7h6.4v13.7c0,0.6,0.1,1.1,0.4,1.3c0.2,0.3,0.7,0.4,1.3,0.5v5.4
				c-0.7,0.1-1.2,0.2-1.7,0.3c-0.5,0-0.9,0.1-1.3,0.1c-2.2,0-3.5-0.9-3.9-2.7l-0.1-1.3c-1,1.4-2.1,2.4-3.6,3
				C199.7,98.6,198.1,98.9,196.4,98.9z"/>
			<path d="M234.9,98.5h-6.4V86.8c0-1.4-0.3-2.4-0.8-3c-0.5-0.6-1.2-0.9-2-0.9c-0.5,0-0.9,0.1-1.4,0.3c-0.5,0.2-0.9,0.4-1.3,0.8
				c-0.4,0.3-0.8,0.7-1.1,1.2c-0.3,0.5-0.6,0.9-0.8,1.5v11.9h-6.4V77.7h5.7v3.5c0.8-1.2,1.9-2.2,3.3-2.9c1.4-0.7,3-1,4.8-1
				c1.4,0,2.4,0.2,3.3,0.7c0.8,0.5,1.5,1.1,1.9,1.9c0.5,0.8,0.7,1.6,0.9,2.6c0.1,0.9,0.2,1.8,0.2,2.7V98.5z"/>
		</g>
	</g>
</g>
</svg>
